<svg width="43" height="43" viewBox="0 0 43 43" fill="none" xmlns="http://www.w3.org/2000/svg">
<g clip-path="url(#clip0_0_4288)">
<path d="M42.9999 20.604C42.9989 19.3684 42.6329 18.1607 41.9479 17.1324C41.2629 16.1041 40.2894 15.301 39.1496 14.8241C38.4221 10.6717 36.2538 6.9087 33.0259 4.19712C29.798 1.48555 25.7173 -0.000976563 21.5016 -0.000976562C17.286 -0.000976562 13.2053 1.48555 9.97742 4.19712C6.74953 6.9087 4.58117 10.6717 3.85373 14.8241C2.55299 15.3713 1.47485 16.3413 0.79365 17.5772C0.112451 18.813 -0.131981 20.2426 0.0998801 21.6345C0.331741 23.0265 1.02634 24.2996 2.07135 25.248C3.11637 26.1963 4.45071 26.7644 5.85861 26.8605C6.78398 28.8243 8.03899 30.615 9.56915 32.1549C7.32703 34.603 5.9041 37.6894 5.49848 40.9842C5.46912 41.2178 5.48606 41.4548 5.54834 41.6818C5.61061 41.9087 5.717 42.1212 5.86142 42.3071C6.00584 42.4929 6.18547 42.6485 6.39004 42.7649C6.5946 42.8813 6.8201 42.9563 7.05365 42.9855C7.12737 42.9945 7.20155 42.9993 7.27582 42.9998C7.71185 42.9993 8.13274 42.8398 8.4596 42.5512C8.78646 42.2626 8.99685 41.8648 9.05136 41.4321C9.37619 38.8345 10.5145 36.4062 12.3032 34.4948C14.9713 36.4642 18.1844 37.5578 21.4999 37.6248C24.8055 37.5572 28.0093 36.4682 30.6714 34.5073C32.4524 36.4155 33.586 38.8369 33.9107 41.4268C33.9648 41.8597 34.1751 42.258 34.502 42.547C34.8289 42.836 35.25 42.9957 35.6863 42.9963C35.7611 42.9959 35.8359 42.9911 35.9102 42.9819C36.3815 42.9229 36.8101 42.6791 37.1018 42.3041C37.3934 41.9292 37.5242 41.4538 37.4654 40.9824C37.0626 37.6959 35.6468 34.6163 33.4144 32.171C34.9531 30.6264 36.2148 28.8289 37.1447 26.8569C38.7317 26.7515 40.2193 26.047 41.3064 24.8861C42.3935 23.7251 42.9988 22.1945 42.9999 20.604V20.604ZM36.2775 23.2431C35.8596 23.1666 35.4281 23.2421 35.0611 23.456C34.694 23.6699 34.4156 24.0082 34.2762 24.4095C32.6351 29.0643 27.1078 34.0415 21.4999 34.0415C15.8919 34.0415 10.3646 29.0607 8.72348 24.4059C8.5838 24.0048 8.30535 23.6668 7.93837 23.4529C7.57139 23.239 7.14006 23.1634 6.72219 23.2396C6.5733 23.2687 6.42233 23.2861 6.27069 23.2915C5.6056 23.2836 4.96709 23.0293 4.47864 22.5778C3.99019 22.1263 3.68651 21.5098 3.62633 20.8474C3.56615 20.1849 3.75375 19.5238 4.15284 18.9917C4.55194 18.4596 5.13417 18.0943 5.78694 17.9667C6.16788 17.8976 6.5162 17.707 6.77975 17.4235C7.04331 17.1399 7.20792 16.7786 7.24894 16.3936C7.48823 14.1026 8.2788 11.9037 9.55307 9.98477C10.8273 8.06589 12.5474 6.48416 14.5661 5.37484C14.2727 6.51452 14.2592 7.70823 14.5267 8.85426C14.891 10.3698 15.7394 11.7253 16.9434 12.7152C18.1474 13.7052 19.6413 14.2756 21.1987 14.34C22.7561 14.4044 24.2921 13.9593 25.5737 13.0722C26.8554 12.1851 27.8128 10.9043 28.301 9.42401C28.3806 9.16105 28.3972 8.88304 28.3494 8.61248C28.3016 8.34192 28.1908 8.0864 28.026 7.8666C27.8612 7.64681 27.6469 7.4689 27.4005 7.34727C27.1542 7.22565 26.8826 7.16373 26.6079 7.16651H26.3374C26.0078 7.17731 25.6903 7.29268 25.4307 7.49592C25.1711 7.69917 24.9828 7.97974 24.8933 8.29705C24.685 8.92344 24.3078 9.48012 23.8032 9.9057C23.2986 10.3313 22.6862 10.6092 22.0337 10.7088C21.3811 10.8084 20.7138 10.7258 20.1052 10.4702C19.4966 10.2145 18.9705 9.79575 18.5848 9.26003C18.1991 8.7243 17.969 8.09246 17.9196 7.4342C17.8703 6.77595 18.0038 6.11686 18.3053 5.52965C18.6069 4.94245 19.0647 4.44994 19.6284 4.10647C20.1921 3.76299 20.8398 3.5819 21.4999 3.58318C25.0399 3.57471 28.4571 4.88017 31.0898 7.24675C33.7225 9.61334 35.3834 12.8727 35.7508 16.3936C35.7918 16.7786 35.9564 17.1399 36.22 17.4235C36.4835 17.707 36.8318 17.8976 37.2128 17.9667C37.8655 18.0943 38.4478 18.4596 38.8469 18.9917C39.246 19.5238 39.4336 20.1849 39.3734 20.8474C39.3132 21.5098 39.0095 22.1263 38.5211 22.5778C38.0326 23.0293 37.3941 23.2836 36.729 23.2915C36.5775 23.2873 36.4265 23.2711 36.2775 23.2431V23.2431Z" fill="#00A0DC"/>
<path d="M17.0215 23.292C18.5058 23.292 19.709 22.0888 19.709 20.6045C19.709 19.1202 18.5058 17.917 17.0215 17.917C15.5372 17.917 14.334 19.1202 14.334 20.6045C14.334 22.0888 15.5372 23.292 17.0215 23.292Z" fill="#00A0DC"/>
<path d="M25.9785 23.292C27.4628 23.292 28.666 22.0888 28.666 20.6045C28.666 19.1202 27.4628 17.917 25.9785 17.917C24.4943 17.917 23.291 19.1202 23.291 20.6045C23.291 22.0888 24.4943 23.292 25.9785 23.292Z" fill="#00A0DC"/>
</g>
<defs>
<clipPath id="clip0_0_4288">
<rect width="43" height="43" fill="white"/>
</clipPath>
</defs>
</svg>
