<svg width="35" height="54" viewBox="0 0 35 54" fill="none" xmlns="http://www.w3.org/2000/svg">
<path d="M34.4272 6.38854L23.7284 0.197274C23.0596 -0.167611 22.4932 -0.0256686 22.1636 0.617703L10.6301 20.6399H8.18717V3.60611H5.89645V20.64H0V22.936H1.68951V52.852C1.68951 53.486 2.20243 54 2.83487 54H29.2903C29.9227 54 30.4356 53.486 30.4356 52.852V22.936H32.1246V20.64H27.5406L34.8465 7.95707C35.1624 7.40771 34.9752 6.70582 34.4272 6.38854ZM28.1449 51.704H3.98022V22.936H28.1449V51.704ZM30.3252 11.2135L25.353 8.33595L24.2077 10.3248L29.1798 13.2022L27.2155 16.6124L24.2311 14.8854L23.0857 16.8743L26.0699 18.6012L24.8955 20.64H13.2753L23.5752 2.76018L32.2895 7.80356L30.3252 11.2135Z" fill="#00A0DC"/>
</svg>
