<svg width="36" height="36" viewBox="0 0 36 36" fill="none" xmlns="http://www.w3.org/2000/svg">
<path d="M35.4429 32.7529L27.1078 24.4368C29.1885 21.7909 30.3164 18.5207 30.3093 15.1546C30.3093 12.1573 29.4205 9.22734 27.7552 6.73517C26.09 4.24301 23.7232 2.3006 20.9541 1.15358C18.1849 0.00656621 15.1378 -0.293546 12.1981 0.291199C9.2584 0.875943 6.55811 2.31928 4.43869 4.43869C2.31928 6.55811 0.875943 9.2584 0.291199 12.1981C-0.293546 15.1378 0.00656621 18.1849 1.15358 20.9541C2.3006 23.7232 4.24301 26.09 6.73517 27.7552C9.22734 29.4205 12.1573 30.3093 15.1546 30.3093C18.5207 30.3164 21.7909 29.1885 24.4368 27.1078L32.7529 35.4429C33.1097 35.7996 33.5935 36 34.0979 36C34.6024 36 35.0862 35.7996 35.4429 35.4429C35.7996 35.0862 36 34.6024 36 34.0979C36 33.5935 35.7996 33.1097 35.4429 32.7529ZM7.12268 23.2813C5.24133 21.4416 4.05659 19.0061 3.7706 16.3903C3.4846 13.7745 4.11507 11.1405 5.55444 8.93773C6.99381 6.73493 9.1529 5.09979 11.6634 4.31128C14.1738 3.52278 16.8801 3.62975 19.3204 4.61396C21.7608 5.59817 23.7841 7.39863 25.0451 9.70817C26.3061 12.0177 26.7267 14.6932 26.2351 17.2783C25.7435 19.8633 24.3703 22.1977 22.3496 23.8832C20.3288 25.5687 17.7859 26.5008 15.1546 26.5206C12.1412 26.518 9.25217 25.3187 7.12268 23.1866V23.2813Z" fill="#00A0DC"/>
</svg>
